<svg width="387" height="387" viewBox="0 0 387 387" fill="none" xmlns="http://www.w3.org/2000/svg">
<rect width="387" height="387" rx="193.5" fill="white"/>
<path d="M151.867 112.536C152.584 112.536 152.627 113.125 151.998 114.297C151.366 115.472 150.554 116.511 149.562 117.417C148.569 118.318 147.892 118.494 147.529 117.951C147.529 117.596 147.572 117.374 147.66 117.286C147.753 117.193 147.801 117.055 147.801 116.874C145.995 118.137 143.919 119.219 141.572 120.124C139.229 121.025 136.794 121.835 134.265 122.56C136.25 122.198 137.918 121.835 139.267 121.473C140.621 121.111 141.3 120.93 141.3 120.93C141.3 121.111 139.493 121.609 135.885 122.419C132.275 123.232 127.988 124.18 123.024 125.267C118.065 126.349 113.553 127.295 109.487 128.105C105.427 128.918 102.948 129.413 102.05 129.595C99.7002 130.138 98.5705 130.458 98.6586 130.551C98.7517 130.639 98.3466 131.585 97.4408 133.389C96.7213 134.652 96.1828 136.232 95.8205 138.129C95.4582 140.021 95.0959 141.689 94.7336 143.131C94.014 145.481 93.068 147.828 91.8956 150.176C90.7206 152.518 89.8626 154.772 89.3192 156.939C89.5003 156.222 89.9532 155.771 90.6778 155.59C91.4024 155.947 91.4024 157.346 90.6778 159.787C89.9532 162.222 89.0927 164.748 88.1014 167.365C87.1076 169.982 86.4333 171.652 86.0785 172.377C88.5996 171.833 91.2137 171.519 93.9184 171.431C96.6282 171.338 99.2473 171.109 101.778 170.746C103.401 170.384 104.891 169.936 106.247 169.398C107.6 168.854 109.359 168.583 111.52 168.583C116.034 168.22 120.369 168.761 124.523 170.203C128.669 171.652 131.689 174.274 133.581 178.063C135.478 181.847 136.248 185.817 135.885 189.969C135.709 192.862 135.035 195.572 133.863 198.1C132.688 200.624 131.92 203.329 131.558 206.212C131.196 208.562 130.697 210.952 130.068 213.388C129.437 215.823 128.581 218.306 127.502 220.835C124.79 226.431 121.675 231.936 118.153 237.35C114.635 242.765 110.444 247.636 105.573 251.963C102.136 255.035 98.7944 257.7 95.5488 259.954C92.3006 262.208 88.2423 263.969 83.3713 265.237C77.7757 266.498 71.682 266.948 65.0951 266.586C58.5056 266.224 52.9528 264.055 48.4391 260.085C45.0098 257.018 43.5681 253.498 44.1116 249.528C44.655 245.562 45.4652 241.683 46.5471 237.894C47.2717 236.09 48.3536 233.745 49.7977 230.859C51.2394 227.968 53.0887 225.439 55.343 223.271C57.6024 221.104 60.0857 220.382 62.7904 221.107C64.5944 221.469 65.4498 222.463 65.3567 224.086C65.2687 225.711 64.8636 227.424 64.139 229.228C63.4194 231.035 62.9716 232.477 62.7904 233.556C62.4281 236.087 62.2897 238.928 62.3778 242.08C62.4709 245.24 63.2383 247.948 64.6824 250.202C66.1317 252.461 68.5697 253.593 71.999 253.593C75.0635 253.593 77.8588 252.461 80.3823 250.202C82.9109 247.948 85.213 245.286 87.2862 242.221C89.3645 239.157 91.1257 236.54 92.5698 234.371C93.2945 233.111 94.6934 230.494 96.7665 226.521C98.8448 222.551 101.056 217.947 103.399 212.713C105.746 207.48 107.641 202.383 109.085 197.416C110.527 192.452 111.022 188.394 110.574 185.239C110.124 182.078 108.184 180.677 104.757 181.032C100.241 181.394 95.8633 182.75 91.6238 185.098C87.3818 187.448 83.0946 189.342 78.762 190.784C76.9555 191.327 75.061 191.418 73.0758 191.056C71.0882 190.693 69.4654 189.611 68.2048 187.805C67.4853 186.363 67.3041 185.103 67.6614 184.021C68.0237 182.934 68.2954 181.761 68.4766 180.498L73.891 149.36C74.4345 146.651 75.2446 144.258 76.3265 142.185C77.4134 140.112 78.4047 137.902 79.3055 135.553C79.4866 135.19 79.6678 134.471 79.8489 133.389C80.0301 132.302 80.254 131.444 80.5232 130.812C80.7975 130.183 80.8453 130.498 80.6641 131.758C81.0189 130.679 81.0616 129.824 80.7949 129.192C80.5257 128.563 80.5735 127.345 80.9358 125.539C81.2906 123.916 81.8743 122.336 82.687 120.799C83.4971 119.264 84.0859 117.684 84.4482 116.059C84.8105 114.073 85.2156 112.134 85.6659 110.242C86.1213 108.344 87.1604 106.583 88.7858 104.958C89.1405 104.596 89.4097 104.281 89.5909 104.012C89.772 103.745 90.0438 103.519 90.4061 103.338C90.9495 102.975 91.488 102.704 92.0264 102.522C92.5698 102.341 93.1133 102.16 93.6568 101.979C94.7361 101.798 95.0959 101.798 94.7336 101.979C94.3763 102.16 94.2002 102.432 94.2002 102.794L97.9843 101.707C97.9843 101.707 97.8031 101.531 97.4408 101.174C97.2647 100.63 98.7114 100.177 101.778 99.8152C104.843 99.4529 108.496 99.229 112.738 99.1409C116.985 99.0478 120.913 99 124.523 99C128.131 99 130.295 99.1812 131.014 99.5435C131.92 99.7246 132.464 100.044 132.645 100.5C132.826 100.95 133.364 101.352 134.265 101.707C135.171 101.888 136.343 101.979 137.787 101.979C139.229 101.979 140.399 102.16 141.3 102.522C142.206 102.704 143.74 103.247 145.909 104.153C148.075 105.054 149.925 106.181 151.454 107.534C152.989 108.89 153.216 110.38 152.129 112.003C151.771 112.36 151.548 112.536 151.454 112.536C151.366 112.536 151.324 112.536 151.324 112.536C151.324 112.536 151.324 112.584 151.324 112.677C151.324 112.765 151.233 112.989 151.052 113.351L151.867 112.536ZM120.457 215.421C119.194 218.125 117.976 220.875 116.804 223.673C115.629 226.471 114.411 229.226 113.151 231.936C116.215 227.241 119.011 222.413 121.534 217.454C124.063 212.489 126.053 207.39 127.502 202.156C126.777 204.499 125.691 206.801 124.241 209.06C122.797 211.314 121.537 213.435 120.457 215.421ZM114.499 126.344L109.357 127.431C110.262 127.25 111.163 127.069 112.064 126.887C112.97 126.706 113.78 126.525 114.499 126.344ZM114.499 126.344C115.224 126.344 116.125 126.168 117.207 125.811L114.499 126.344ZM125.328 124.452C125.147 124.452 124.921 124.5 124.654 124.593C124.385 124.681 124.161 124.724 123.98 124.724C124.342 124.724 124.79 124.633 125.328 124.452Z" fill="#474972"/>
<path d="M242.01 135.019C242.192 137.912 242.01 140.801 241.467 143.684C240.928 146.57 240.299 149.458 239.575 152.349C236.87 164.26 233.622 176.261 229.833 188.358C226.404 199.187 222.388 209.744 217.786 220.03C213.182 230.315 208.804 240.784 204.653 251.439C203.209 255.229 201.223 258.658 198.695 261.725C196.164 264.789 192.556 265.964 187.866 265.247C184.98 264.704 182.363 263.438 180.016 261.453C178.753 260.009 178.167 258.97 178.255 258.333C178.34 257.702 178.567 256.575 178.929 254.952C179.473 252.247 180.419 249.588 181.767 246.971C183.121 244.354 184.344 241.781 185.43 239.252C188.495 231.852 191.834 224.589 195.444 217.463C199.052 210.333 202.212 202.976 204.924 195.393C203.299 199.547 201.266 203.744 198.826 207.983C196.39 212.225 194.269 216.422 192.465 220.573C189.76 226.712 187.144 232.761 184.615 238.719C182.092 244.669 179.566 250.715 177.037 256.854C176.312 254.323 176.446 251.613 177.44 248.722C178.431 245.836 179.739 242.996 181.365 240.198C182.987 237.4 184.162 235.01 184.887 233.022C188.133 225.087 191.562 217.101 195.172 209.07C198.78 201.039 202.031 192.962 204.924 184.836C202.937 186.642 200.861 188.265 198.695 189.707C196.526 191.151 194.631 192.686 193.009 194.316C189.579 197.564 185.34 199.456 180.288 199.992C178.119 200.173 175.953 200.173 173.786 199.992C167.828 198.913 163.134 196.435 159.707 192.555C156.277 188.67 153.933 184.021 152.672 178.606C151.409 173.192 151.047 167.777 151.585 162.363C152.31 157.492 153.618 152.757 155.51 148.152C157.407 143.551 159.44 139.082 161.609 134.747C162.869 132.588 163.858 130.47 164.578 128.397C165.302 126.319 166.384 124.195 167.828 122.026C171.436 116.974 175.902 112.692 181.224 109.174C186.55 105.652 192.375 103.262 198.695 101.999C205.015 100.731 211.149 101.091 217.102 103.076C223.784 105.244 229.425 109.351 234.03 115.394C238.631 121.44 241.291 127.982 242.01 135.019ZM217.917 135.834C218.279 134.03 218.684 131.595 219.135 128.528C219.583 125.456 219.628 122.477 219.266 119.591C218.908 116.7 217.467 114.896 214.938 114.176C212.407 113.271 210.017 113.859 207.763 115.937C205.508 118.011 203.659 119.86 202.217 121.483C196.078 128.704 190.749 136.961 186.236 146.26C181.727 155.555 178.298 164.713 175.95 173.735C175.593 175.179 175.188 177.031 174.732 179.291C174.282 181.545 174.239 183.575 174.602 185.379C174.964 187.186 176.136 188.358 178.124 188.902C180.826 189.621 183.712 188.987 186.779 187C189.851 185.014 192.289 183.301 194.096 181.857C197.16 179.328 200.408 176.259 203.838 172.648C207.264 169.04 209.79 165.43 211.416 161.819C213.22 157.854 214.571 153.572 215.472 148.968C216.377 144.366 217.192 139.988 217.917 135.834ZM207.36 189.435C208.439 187.993 208.53 187.271 207.632 187.271C206.726 188.534 206.635 189.254 207.36 189.435Z" fill="#474972"/>
<path d="M344.085 175.898V176.17C344.44 179.063 343.491 181.773 341.237 184.302C338.983 186.825 336.366 189.037 333.387 190.934C330.408 192.826 327.925 194.494 325.94 195.936C321.975 198.822 318.004 201.572 314.034 204.188C310.061 206.805 305.907 209.288 301.575 211.636C300.493 212.179 299.23 212.723 297.781 213.266C296.336 213.804 295.076 214.524 293.997 215.43C292.552 216.693 291.833 217.551 291.833 218.006C291.833 218.457 291.923 219.762 292.105 221.921C292.467 224.271 292.781 226.709 293.051 229.238C293.317 231.761 293.453 234.287 293.453 236.816C293.634 240.605 293.498 244.397 293.051 248.188C292.6 251.977 291.652 255.678 290.202 259.289C286.954 267.587 282.126 274.219 275.72 279.185C269.312 284.149 261.414 286.542 252.03 286.361C246.434 286.18 241.11 285.138 236.058 283.241C231.006 281.349 227.038 278.416 224.152 274.445C221.261 270.472 220.358 265.511 221.445 259.561C221.264 259.742 221.04 260.642 220.771 262.268C220.496 263.891 220.268 264.613 220.086 264.432C219.188 263.888 219.01 262.532 219.553 260.366C220.091 258.204 220.449 256.763 220.63 256.038C222.255 250.986 225.008 246.472 228.892 242.502C232.772 238.532 236.695 235.012 240.667 231.945C243.007 230.141 245.307 228.382 247.561 226.671C249.821 224.955 252.123 223.37 254.465 221.921C256.269 220.842 258.705 219.491 261.772 217.865C264.844 216.243 266.471 214.529 266.653 212.723C267.015 210.737 266.607 208.078 265.435 204.742C264.26 201.401 263.402 198.739 262.858 196.751C262.32 194.222 261.691 191.606 260.966 188.901C260.242 186.191 259.701 183.482 259.346 180.769C259.165 178.965 259.208 177.433 259.477 176.17C259.744 174.91 259.701 173.468 259.346 171.843C258.622 169.676 257.987 167.555 257.444 165.482C256.906 163.404 256.548 161.192 256.367 158.85C256.186 156.502 256.186 154.2 256.367 151.946C256.548 149.687 256.996 147.473 257.716 145.304C258.259 143.681 259.432 141.698 261.238 139.356C263.042 137.008 265.163 134.887 267.599 132.995C270.034 131.098 272.515 129.833 275.046 129.201C277.575 128.572 279.741 129.068 281.547 130.691C281.547 129.966 282.131 130.464 283.299 132.18C284.471 133.891 285.15 135.199 285.331 136.105C285.331 136.468 285.241 137.552 285.06 139.356C284.879 141.162 284.562 142.876 284.114 144.499C283.663 146.124 283.168 146.934 282.624 146.934C282.624 146.934 282.715 146.438 282.896 145.445C283.077 144.453 283.258 143.502 283.439 142.597C282.715 144.403 281.945 146.255 281.135 148.152C280.322 150.044 279.826 151.984 279.645 153.969C279.464 155.775 279.507 157.627 279.776 159.524C280.05 161.416 280.279 163.175 280.46 164.798C280.46 164.081 280.642 163.63 281.004 163.449C281.004 163.449 281.228 164.757 281.678 167.374C282.126 169.991 282.8 173.287 283.701 177.257C284.607 181.23 285.422 185.112 286.147 188.901C285.241 185.286 284.247 181.494 283.168 177.529C282.086 173.558 281.276 170.308 280.732 167.777C281.812 173.735 283.029 179.65 284.385 185.52C285.739 191.384 287.047 197.201 288.31 202.971C288.673 202.616 288.763 201.894 288.582 200.807C288.944 201.894 289.126 202.437 289.126 202.437C295.083 199.365 300.855 196.343 306.446 193.369C312.041 190.391 317.637 187.185 323.233 183.748C325.761 182.125 328.287 180.186 330.811 177.931C333.339 175.677 335.868 173.916 338.399 172.648C341.464 171.387 343.361 172.472 344.085 175.898ZM234.709 269.031C236.695 269.755 238.725 269.979 240.798 269.705C242.871 269.436 244.809 269.121 246.615 268.759L254.203 265.78C254.377 265.961 254.057 266.324 253.247 266.867C252.435 267.411 252.03 267.773 252.03 267.954C255.102 266.147 257.899 263.709 260.423 260.637L259.074 261.724C259.791 261 260.737 259.553 261.912 257.387C263.085 255.225 264.169 253.152 265.163 251.167C266.154 249.18 266.653 248.007 266.653 247.645C267.558 244.397 268.097 241.148 268.273 237.903C268.454 234.65 268.454 231.399 268.273 228.151C268.097 228.332 267.83 228.513 267.468 228.694C267.105 228.875 266.743 229.057 266.381 229.238L268.273 227.607L265.032 229.509C265.931 229.147 265.52 229.645 263.804 230.999C262.094 232.347 261.057 233.203 260.695 233.565L252.573 238.98C249.868 240.784 247.118 242.769 244.321 244.938C241.523 247.104 239.13 249.539 237.145 252.244C236.42 253.331 235.384 255.092 234.035 257.528C232.682 259.963 231.869 262.308 231.6 264.562C231.325 266.822 232.362 268.311 234.709 269.031ZM268.816 276.881C272.424 275.255 275.267 273.27 277.341 270.923C279.419 268.58 281.18 265.964 282.624 263.073C278.651 268.669 273.506 273.046 267.186 276.206C260.871 279.367 254.377 281.128 247.702 281.49C255.102 281.128 262.139 279.59 268.816 276.881ZM288.582 199.992C288.401 199.093 288.172 197.966 287.898 196.61C287.629 195.257 287.317 193.858 286.962 192.413C287.679 195.126 288.22 197.652 288.582 199.992ZM292.105 228.151C292.105 227.97 292.057 227.746 291.964 227.476C291.876 227.21 291.833 226.983 291.833 226.802C291.833 227.522 291.923 227.97 292.105 228.151Z" fill="#474972"/>
</svg>
