<svg width="301" height="188" viewBox="0 0 301 188" fill="none" xmlns="http://www.w3.org/2000/svg">
<path d="M107.867 13.5361C108.584 13.5361 108.627 14.1249 107.998 15.2973C107.366 16.4723 106.554 17.5114 105.562 18.4172C104.569 19.3179 103.892 19.494 103.529 18.9506C103.529 18.5958 103.572 18.3744 103.66 18.2863C103.753 18.1932 103.801 18.0549 103.801 17.8737C101.995 19.1367 99.919 20.2186 97.5716 21.1244C95.2292 22.0251 92.7937 22.8353 90.2651 23.5599C92.2502 23.1976 93.9183 22.8353 95.2669 22.473C96.6205 22.1107 97.2998 21.9295 97.2998 21.9295C97.2998 22.1107 95.4933 22.6088 91.8854 23.419C88.2749 24.2316 83.9876 25.1802 79.0236 26.2671C74.0645 27.349 69.5533 28.295 65.4875 29.1051C61.4266 29.9178 58.9484 30.4135 58.0502 30.5946C55.7002 31.1381 54.5705 31.4576 54.6586 31.5507C54.7517 31.6388 54.3466 32.5848 53.4408 34.3888C52.7213 35.6518 52.1828 37.2318 51.8205 39.1289C51.4582 41.021 51.0959 42.6891 50.7336 44.1307C50.014 46.4807 49.068 48.8281 47.8956 51.1755C46.7206 53.5179 45.8626 55.7723 45.3192 57.9386C45.5003 57.2215 45.9532 56.7711 46.6778 56.59C47.4024 56.9473 47.4024 58.3462 46.6778 60.7867C45.9532 63.2222 45.0927 65.7482 44.1014 68.3649C43.1076 70.9815 42.4333 72.6522 42.0785 73.3768C44.5996 72.8333 47.2137 72.5188 49.9184 72.4308C52.6282 72.3377 55.2473 72.1087 57.7784 71.7464C59.4012 71.3841 60.8907 70.9362 62.2468 70.3978C63.6005 69.8544 65.3591 69.5826 67.5204 69.5826C72.0341 69.2203 76.3692 69.7613 80.5231 71.2029C84.6695 72.6522 87.6887 75.2738 89.5807 79.063C91.4778 82.847 92.2477 86.8173 91.8854 90.9687C91.7093 93.8621 91.035 96.5718 89.8625 99.1004C88.6876 101.624 87.9202 104.329 87.5579 107.212C87.1956 109.562 86.6974 111.952 86.0684 114.388C85.4369 116.823 84.5814 119.306 83.5021 121.835C80.7898 127.431 77.675 132.936 74.1526 138.35C70.6352 143.765 66.4435 148.636 61.5726 152.963C58.1357 156.035 54.7944 158.7 51.5488 160.954C48.3006 163.208 44.2423 164.969 39.3713 166.237C33.7757 167.498 27.682 167.948 21.0951 167.586C14.5056 167.224 8.95282 165.055 4.43911 161.085C1.00979 158.018 -0.431879 154.498 0.111578 150.528C0.655035 146.562 1.46519 142.683 2.54707 138.894C3.27168 137.09 4.35356 134.745 5.79775 131.859C7.23942 128.968 9.08869 126.439 11.343 124.271C13.6024 122.104 16.0857 121.382 18.7904 122.107C20.5944 122.469 21.4498 123.463 21.3567 125.086C21.2687 126.711 20.8636 128.424 20.139 130.228C19.4194 132.035 18.9716 133.477 18.7904 134.556C18.4281 137.087 18.2897 139.928 18.3778 143.08C18.4709 146.24 19.2383 148.948 20.6824 151.202C22.1317 153.461 24.5697 154.593 27.999 154.593C31.0635 154.593 33.8588 153.461 36.3823 151.202C38.9109 148.948 41.213 146.286 43.2862 143.221C45.3645 140.157 47.1257 137.54 48.5698 135.371C49.2945 134.111 50.6934 131.494 52.7665 127.521C54.8448 123.551 57.0563 118.947 59.3987 113.713C61.7462 108.48 63.6407 103.383 65.0849 98.4161C66.5266 93.452 67.0222 89.3937 66.5744 86.2386C66.124 83.0785 64.1842 81.6771 60.7574 82.0318C56.2411 82.3941 51.8633 83.7503 47.6238 86.0977C43.3818 88.4476 39.0946 90.3422 34.762 91.7839C32.9555 92.3273 31.061 92.4179 29.0758 92.0556C27.0882 91.6933 25.4654 90.6114 24.2048 88.8049C23.4853 87.3633 23.3041 86.1027 23.6614 85.0208C24.0237 83.9339 24.2954 82.7615 24.4766 81.4984L29.891 50.3604C30.4345 47.6506 31.2446 45.2579 32.3265 43.1847C33.4134 41.1115 34.4047 38.9025 35.3055 36.5525C35.4866 36.1902 35.6678 35.4706 35.8489 34.3888C36.0301 33.3018 36.254 32.4439 36.5232 31.8124C36.7975 31.1834 36.8453 31.4979 36.6641 32.7584C37.0189 31.679 37.0616 30.8236 36.7949 30.1921C36.5257 29.5631 36.5735 28.3453 36.9358 26.5388C37.2906 24.916 37.8743 23.3359 38.687 21.7987C39.4971 20.2639 40.0859 18.6839 40.4482 17.0585C40.8105 15.0734 41.2156 13.1335 41.6659 11.2415C42.1213 9.34444 43.1604 7.58324 44.7858 5.9579C45.1405 5.5956 45.4097 5.2811 45.5909 5.01188C45.772 4.74519 46.0438 4.51875 46.4061 4.33759C46.9495 3.97529 47.488 3.70356 48.0264 3.52241C48.5698 3.34125 49.1133 3.1601 49.6568 2.97895C50.7361 2.7978 51.0959 2.7978 50.7336 2.97895C50.3763 3.1601 50.2002 3.43183 50.2002 3.79414L53.9843 2.70722C53.9843 2.70722 53.8031 2.5311 53.4408 2.17383C53.2647 1.63037 54.7114 1.17749 57.7784 0.815186C60.8429 0.452881 64.4962 0.228957 68.7381 0.140896C72.9852 0.0478043 76.9126 0 80.5231 0C84.1311 0 86.2948 0.181152 87.0144 0.543457C87.9202 0.724609 88.4636 1.04414 88.6448 1.49954C88.8259 1.9499 89.3644 2.35246 90.2651 2.70722C91.1708 2.88837 92.3433 2.97895 93.7875 2.97895C95.2292 2.97895 96.3991 3.1601 97.2998 3.52241C98.2056 3.70356 99.7404 4.24702 101.909 5.15278C104.075 6.05351 105.925 7.18068 107.454 8.53429C108.989 9.89042 109.216 11.3799 108.129 13.0027C107.771 13.36 107.548 13.5361 107.454 13.5361C107.366 13.5361 107.324 13.5361 107.324 13.5361C107.324 13.5361 107.324 13.5839 107.324 13.677C107.324 13.7651 107.233 13.989 107.052 14.3513L107.867 13.5361ZM76.4572 116.421C75.1942 119.125 73.9765 121.875 72.804 124.673C71.629 127.471 70.4113 130.226 69.1508 132.936C72.2153 128.241 75.0105 123.413 77.5341 118.454C80.0627 113.489 82.0528 108.39 83.5021 103.156C82.7775 105.499 81.6905 107.801 80.2413 110.06C78.7971 112.314 77.5366 114.435 76.4572 116.421ZM70.4993 27.3439L65.3566 28.4309C66.2624 28.2497 67.1631 28.0686 68.0639 27.8874C68.9696 27.7062 69.7798 27.5251 70.4993 27.3439ZM70.4993 27.3439C71.224 27.3439 72.1247 27.1678 73.2066 26.8106L70.4993 27.3439ZM81.3282 25.4519C81.1471 25.4519 80.9206 25.4997 80.6539 25.5928C80.3847 25.6809 80.1608 25.7236 79.9797 25.7236C80.342 25.7236 80.7898 25.6331 81.3282 25.4519Z" fill="#474972"/>
<path d="M198.01 36.0189C198.192 38.9123 198.01 41.8006 197.467 44.684C196.928 47.5699 196.299 50.4582 195.575 53.3491C192.87 65.2599 189.622 77.2612 185.833 89.3582C182.404 100.187 178.388 110.744 173.786 121.03C169.182 131.315 164.804 141.784 160.653 152.439C159.209 156.229 157.223 159.658 154.695 162.725C152.164 165.789 148.556 166.964 143.866 166.247C140.98 165.704 138.363 164.438 136.016 162.453C134.753 161.009 134.167 159.97 134.255 159.333C134.34 158.702 134.567 157.575 134.929 155.952C135.473 153.247 136.419 150.588 137.767 147.971C139.121 145.354 140.344 142.781 141.43 140.252C144.495 132.852 147.834 125.589 151.444 118.463C155.052 111.333 158.212 103.976 160.924 96.3929C159.299 100.547 157.266 104.744 154.826 108.983C152.39 113.225 150.269 117.422 148.465 121.573C145.76 127.712 143.144 133.761 140.615 139.719C138.092 145.669 135.566 151.715 133.037 157.854C132.312 155.323 132.446 152.613 133.44 149.722C134.431 146.836 135.739 143.996 137.365 141.198C138.987 138.4 140.162 136.01 140.887 134.022C144.133 126.087 147.562 118.101 151.172 110.07C154.78 102.039 158.031 93.9625 160.924 85.8358C158.937 87.6423 156.861 89.2651 154.695 90.7068C152.526 92.1509 150.631 93.6857 149.009 95.3161C145.579 98.5642 141.34 100.456 136.288 100.992C134.119 101.173 131.953 101.173 129.786 100.992C123.828 99.9128 119.134 97.4346 115.707 93.5549C112.277 89.6702 109.933 85.0206 108.672 79.6061C107.409 74.1917 107.047 68.7773 107.585 63.3628C108.31 58.4918 109.618 53.7567 111.51 49.1524C113.407 44.5506 115.44 40.0822 117.609 35.7471C118.869 33.5884 119.858 31.4699 120.578 29.3967C121.302 27.3185 122.384 25.195 123.828 23.0262C127.436 17.9741 131.902 13.6918 137.224 10.1745C142.55 6.65205 148.375 4.26184 154.695 2.99881C161.015 1.73074 167.149 2.09053 173.102 4.07566C179.784 6.24446 185.425 10.3506 190.03 16.394C194.631 22.44 197.291 28.9816 198.01 36.0189ZM173.917 36.8341C174.279 35.0301 174.684 32.5946 175.135 29.5276C175.583 26.4555 175.628 23.4766 175.266 20.5907C174.908 17.6998 173.467 15.8959 170.938 15.1763C168.407 14.2705 166.017 14.8593 163.763 16.9375C161.508 19.0107 159.659 20.8599 158.217 22.4828C152.078 29.7037 146.749 37.9612 142.236 47.2604C137.727 56.5545 134.298 65.7128 131.95 74.7352C131.593 76.1794 131.188 78.0311 130.732 80.2905C130.282 82.5448 130.239 84.5753 130.602 86.3792C130.964 88.1857 132.136 89.3582 134.124 89.9016C136.826 90.6212 139.712 89.9872 142.779 87.9995C145.851 86.0144 148.289 84.301 150.096 82.8568C153.16 80.3282 156.408 77.2587 159.838 73.6482C163.264 70.0403 165.79 66.4298 167.416 62.8194C169.22 58.8541 170.571 54.5719 171.472 49.9676C172.377 45.3658 173.192 40.988 173.917 36.8341ZM163.36 90.435C164.439 88.9934 164.53 88.2713 163.632 88.2713C162.726 89.5343 162.635 90.2539 163.36 90.435Z" fill="#474972"/>
<path d="M300.085 76.8984V77.1701C300.44 80.0635 299.491 82.7732 297.237 85.3018C294.983 87.8254 292.366 90.0369 289.387 91.934C286.408 93.826 283.925 95.4941 281.94 96.9358C277.975 99.8217 274.004 102.572 270.034 105.188C266.061 107.805 261.907 110.288 257.575 112.636C256.493 113.179 255.23 113.723 253.781 114.266C252.336 114.804 251.076 115.524 249.997 116.43C248.552 117.693 247.833 118.551 247.833 119.006C247.833 119.457 247.923 120.762 248.105 122.921C248.467 125.271 248.781 127.709 249.051 130.238C249.317 132.761 249.453 135.287 249.453 137.816C249.634 141.605 249.498 145.397 249.051 149.188C248.6 152.977 247.652 156.678 246.202 160.289C242.954 168.587 238.126 175.219 231.72 180.185C225.312 185.149 217.414 187.542 208.03 187.361C202.434 187.18 197.11 186.138 192.058 184.241C187.006 182.349 183.038 179.416 180.152 175.445C177.261 171.472 176.358 166.511 177.445 160.561C177.264 160.742 177.04 161.642 176.771 163.268C176.496 164.891 176.268 165.613 176.086 165.432C175.188 164.888 175.01 163.532 175.553 161.366C176.091 159.204 176.449 157.763 176.63 157.038C178.255 151.986 181.008 147.472 184.892 143.502C188.772 139.532 192.695 136.012 196.667 132.945C199.007 131.141 201.307 129.382 203.561 127.671C205.821 125.955 208.123 124.37 210.465 122.921C212.269 121.842 214.705 120.491 217.772 118.865C220.844 117.243 222.471 115.529 222.653 113.723C223.015 111.737 222.607 109.078 221.435 105.742C220.26 102.401 219.402 99.7387 218.858 97.751C218.32 95.2224 217.691 92.6058 216.966 89.9011C216.242 87.1913 215.701 84.4816 215.346 81.7693C215.165 79.9654 215.208 78.4331 215.477 77.1701C215.744 75.9096 215.701 74.4679 215.346 72.8426C214.622 70.6763 213.987 68.5553 213.444 66.4821C212.906 64.4039 212.548 62.1923 212.367 59.8499C212.186 57.5025 212.186 55.2003 212.367 52.946C212.548 50.6866 212.996 48.4725 213.716 46.3037C214.259 44.6809 215.432 42.6983 217.238 40.3559C219.042 38.0085 221.163 35.8875 223.599 33.9954C226.034 32.0984 228.515 30.8328 231.046 30.2013C233.575 29.5723 235.741 30.0679 237.547 31.6908C237.547 30.9662 238.131 31.4643 239.299 33.1802C240.471 34.8911 241.15 36.1994 241.331 37.1052C241.331 37.4675 241.241 38.5519 241.06 40.3559C240.879 42.1624 240.562 43.8758 240.114 45.4986C239.663 47.1239 239.168 47.9341 238.624 47.9341C238.624 47.9341 238.715 47.4384 238.896 46.4446C239.077 45.4533 239.258 44.5023 239.439 43.5965C238.715 45.403 237.945 47.2548 237.135 49.1518C236.322 51.0439 235.826 52.9837 235.645 54.9688C235.464 56.7753 235.507 58.6271 235.776 60.5242C236.05 62.4162 236.279 64.1749 236.46 65.7977C236.46 65.0807 236.642 64.6303 237.004 64.4492C237.004 64.4492 237.228 65.7575 237.678 68.3741C238.126 70.9908 238.8 74.2867 239.701 78.257C240.607 82.2298 241.422 86.112 242.147 89.9011C241.241 86.2856 240.247 82.4939 239.168 78.5287C238.086 74.5585 237.276 71.3078 236.732 68.7767C237.812 74.7346 239.029 80.6497 240.385 86.5196C241.739 92.3844 243.047 98.2014 244.31 103.971C244.673 103.616 244.763 102.894 244.582 101.807C244.944 102.894 245.126 103.437 245.126 103.437C251.083 100.365 256.855 97.3434 262.446 94.3695C268.041 91.3905 273.637 88.1852 279.233 84.7483C281.761 83.1255 284.287 81.1856 286.811 78.9313C289.339 76.6769 291.868 74.9157 294.399 73.6477C297.464 72.3872 299.361 73.4716 300.085 76.8984ZM190.709 170.031C192.695 170.755 194.725 170.979 196.798 170.705C198.871 170.436 200.809 170.121 202.615 169.759L210.203 166.78C210.377 166.961 210.057 167.324 209.247 167.867C208.435 168.411 208.03 168.773 208.03 168.954C211.102 167.147 213.899 164.709 216.423 161.637L215.074 162.724C215.791 162 216.737 160.553 217.912 158.387C219.085 156.225 220.169 154.152 221.163 152.167C222.154 150.18 222.653 149.007 222.653 148.645C223.558 145.397 224.097 142.148 224.273 138.903C224.454 135.65 224.454 132.399 224.273 129.151C224.097 129.332 223.83 129.513 223.468 129.694C223.105 129.875 222.743 130.057 222.381 130.238L224.273 128.607L221.032 130.509C221.931 130.147 221.52 130.645 219.804 131.999C218.094 133.347 217.057 134.203 216.695 134.565L208.573 139.98C205.868 141.784 203.118 143.769 200.321 145.938C197.523 148.104 195.13 150.539 193.145 153.244C192.42 154.331 191.384 156.092 190.035 158.528C188.682 160.963 187.869 163.308 187.6 165.562C187.325 167.822 188.362 169.311 190.709 170.031ZM224.816 177.881C228.424 176.255 231.267 174.27 233.341 171.923C235.419 169.58 237.18 166.964 238.624 164.073C234.651 169.669 229.506 174.046 223.186 177.206C216.871 180.367 210.377 182.128 203.702 182.49C211.102 182.128 218.139 180.59 224.816 177.881ZM244.582 100.992C244.401 100.093 244.172 98.9662 243.898 97.6101C243.629 96.2565 243.317 94.8576 242.962 93.4134C243.679 96.1257 244.22 98.6517 244.582 100.992ZM248.105 129.151C248.105 128.97 248.057 128.746 247.964 128.476C247.876 128.21 247.833 127.983 247.833 127.802C247.833 128.522 247.923 128.97 248.105 129.151Z" fill="#474972"/>
</svg>
