<svg width="93" height="95" viewBox="0 0 93 95" fill="none" xmlns="http://www.w3.org/2000/svg">
<g id="mdi:coupon-outline">
<path id="Vector" d="M57.2346 31.8307L61.8346 36.5307L35.768 63.1641L31.168 58.4641L57.2346 31.8307ZM15.8346 16.1641H77.168C81.423 16.1641 84.8346 19.6499 84.8346 23.9974V39.6641C82.8013 39.6641 80.8513 40.4894 79.4135 41.9584C77.9757 43.4274 77.168 45.4199 77.168 47.4974C77.168 49.5749 77.9757 51.5674 79.4135 53.0364C80.8513 54.5054 82.8013 55.3307 84.8346 55.3307V70.9974C84.8346 75.3449 81.423 78.8307 77.168 78.8307H15.8346C13.8013 78.8307 11.8513 78.0054 10.4135 76.5364C8.9757 75.0674 8.16797 73.0749 8.16797 70.9974V55.3307C12.423 55.3307 15.8346 51.8449 15.8346 47.4974C15.8346 45.4199 15.0269 43.4274 13.5891 41.9584C12.1513 40.4894 10.2013 39.6641 8.16797 39.6641V23.9974C8.16797 21.9199 8.9757 19.9274 10.4135 18.4584C11.8513 16.9894 13.8013 16.1641 15.8346 16.1641ZM15.8346 23.9974V33.9457C18.1641 35.3181 20.0987 37.2932 21.4438 39.6721C22.7889 42.051 23.4971 44.75 23.4971 47.4974C23.4971 50.2448 22.7889 52.9438 21.4438 55.3227C20.0987 57.7016 18.1641 59.6767 15.8346 61.0491V70.9974H77.168V61.0491C74.8385 59.6767 72.9039 57.7016 71.5588 55.3227C70.2137 52.9438 69.5055 50.2448 69.5055 47.4974C69.5055 44.75 70.2137 42.051 71.5588 39.6721C72.9039 37.2932 74.8385 35.3181 77.168 33.9457V23.9974H15.8346ZM36.918 31.8307C40.0996 31.8307 42.668 34.4549 42.668 37.7057C42.668 40.9566 40.0996 43.5807 36.918 43.5807C33.7363 43.5807 31.168 40.9566 31.168 37.7057C31.168 34.4549 33.7363 31.8307 36.918 31.8307ZM56.0846 51.4141C59.2663 51.4141 61.8346 54.0382 61.8346 57.2891C61.8346 60.5399 59.2663 63.1641 56.0846 63.1641C52.903 63.1641 50.3346 60.5399 50.3346 57.2891C50.3346 54.0382 52.903 51.4141 56.0846 51.4141Z" fill="#999999"/>
</g>
</svg>
