<svg width="76" height="73" viewBox="0 0 76 73" fill="none" xmlns="http://www.w3.org/2000/svg">
<g id="simple-line-icons:present">
<path id="Vector" d="M74.5106 22.3466C74.2595 19.7855 72.0997 17.7841 69.4727 17.7841H62.8279C64.4703 15.8354 65.49 13.3936 65.49 10.48C65.49 8.4155 64.8978 6.22695 63.4358 4.54684C61.9626 2.8539 59.6557 1.73438 56.3486 1.73438C51.9789 1.73438 48.017 4.05746 44.7675 6.94964C41.7725 9.61531 39.3316 12.8094 37.6702 15.2649C35.9983 12.807 33.5069 9.61307 30.4621 6.9479C27.1596 4.05712 23.1451 1.73552 18.7776 1.73552C15.4705 1.73552 13.1636 2.85504 11.6904 4.54798C10.2284 6.22809 9.6362 8.41664 9.6362 10.4811C9.6362 13.3956 10.6839 15.8379 12.3588 17.7852H5.59766C2.80187 17.7852 0.535156 20.052 0.535156 22.8477V36.5045V37.0045H1.03516H5.13758V66.2006C5.13758 68.9964 7.40422 71.2631 10.2001 71.2631H64.9273C67.723 71.2631 69.9898 68.9964 69.9898 66.2006V37.0033H74.0351H74.5351V36.5033V22.8466V22.3466H74.5106ZM56.3486 7.29802C57.7025 7.29802 58.5742 7.58448 59.1089 8.07225C59.6336 8.55093 59.9275 9.31043 59.9275 10.4812C59.9275 12.7997 58.6427 14.6085 56.6668 15.8601C54.6821 17.1173 52.0351 17.783 49.4513 17.783H42.6783C44.2262 15.5754 46.2279 13.1012 48.4595 11.1079C50.9715 8.86414 53.6989 7.29802 56.3486 7.29802ZM18.7775 7.29809C21.4303 7.29809 24.2126 8.86657 26.7793 11.1113C29.0585 13.1046 31.1071 15.578 32.6625 17.7819H25.8892C23.3073 17.7819 20.6049 17.0993 18.5642 15.8222C16.5294 14.5488 15.1986 12.7209 15.1986 10.4093C15.1986 9.23926 15.4922 8.5017 16.0117 8.04173C16.5449 7.56958 17.4171 7.29809 18.7775 7.29809ZM68.9726 31.4408H40.3163V23.3466H68.9726V31.4408ZM6.09759 23.3466H34.7538V31.4408H6.09759V23.3466ZM10.7 37.0033H34.7538V65.6995H10.7V37.0033ZM64.4283 65.6995H40.3163V37.0033H64.4283V65.6995Z" fill="#999999" stroke="#999999"/>
</g>
</svg>
